<svg xmlns="http://www.w3.org/2000/svg" viewBox="0 0 1200 800" role="img"><title>Generic blue observability control</title><desc>Intentionally generic internal control example for distinctiveness comparison.</desc><rect width="1200" height="800" fill="#0F172A"/><rect x="30" y="30" width="1140" height="740" rx="18" fill="#111827"/><rect x="54" y="60" width="210" height="680" rx="12" fill="#172033"/><text x="292" y="88" fill="#E5E7EB" font-family="Arial,sans-serif" font-size="28">Dashboard</text><g fill="#172033" stroke="#334155"><rect x="292" y="120" width="180" height="120" rx="14"/><rect x="497" y="120" width="180" height="120" rx="14"/><rect x="702" y="120" width="180" height="120" rx="14"/><rect x="907" y="120" width="180" height="120" rx="14"/></g><g fill="#60A5FA"><circle cx="326" cy="154" r="12"/><circle cx="531" cy="154" r="12"/><circle cx="736" cy="154" r="12"/><circle cx="941" cy="154" r="12"/></g><rect x="292" y="274" width="590" height="250" rx="14" fill="#172033" stroke="#334155"/><path d="M330 466L390 410L452 438L518 350L586 382L650 318L720 346L822 292" fill="none" stroke="#60A5FA" stroke-width="4"/><rect x="906" y="274" width="230" height="250" rx="14" fill="#172033" stroke="#334155"/><rect x="292" y="550" width="844" height="160" rx="14" fill="#172033" stroke="#334155"/><text x="54" y="756" fill="#94A3B8" font-family="Arial,sans-serif" font-size="13">CONTROL: generic sidebar + KPI cards + blue chart + rounded panels</text></svg>